<svg xmlns="http://www.w3.org/2000/svg" xmlns:xlink="http://www.w3.org/1999/xlink" width="79" height="24" viewBox="0 0 79 24">
  <defs>
    <clipPath id="clip-path">
      <rect id="Ret칙ngulo_7" data-name="Ret칙ngulo 7" width="24" height="24" transform="translate(213 1094)" fill="#fff"/>
    </clipPath>
  </defs>
  <g id="Grupo_12" data-name="Grupo 12" transform="translate(-395 -1049)">
    <text id="GitHub" transform="translate(427 1067)" fill="#676767" font-size="14" font-family="OpenSans, Open Sans"><tspan x="0" y="0">GitHub</tspan></text>
    <g id="Grupo_de_m치scara_3" data-name="Grupo de m치scara 3" transform="translate(182 -45)" clip-path="url(#clip-path)">
      <path id="_002-github" data-name="002-github" d="M12,.5A11.9,11.9,0,0,0,0,12.292,11.812,11.812,0,0,0,8.2,23.48c.6.111.82-.254.82-.567,0-.28-.01-1.022-.015-2-3.338.711-4.042-1.582-4.042-1.582A3.143,3.143,0,0,0,3.633,17.6c-1.087-.731.084-.716.084-.716A2.51,2.51,0,0,1,5.555,18.1a2.584,2.584,0,0,0,3.495.981A2.5,2.5,0,0,1,9.81,17.5c-2.665-.3-5.466-1.309-5.466-5.827A4.505,4.505,0,0,1,5.579,8.513a4.126,4.126,0,0,1,.105-3.121s1.005-.316,3.3,1.209a11.506,11.506,0,0,1,6,0c2.28-1.525,3.285-1.209,3.285-1.209a4.24,4.24,0,0,1,.12,3.121,4.523,4.523,0,0,1,1.23,3.164c0,4.53-2.805,5.527-5.475,5.817a2.8,2.8,0,0,1,.81,2.182c0,1.578-.015,2.846-.015,3.229,0,.309.21.678.825.56A11.776,11.776,0,0,0,24,12.292,11.9,11.9,0,0,0,12,.5Z" transform="translate(213 1094)" fill="#676767"/>
    </g>
  </g>
</svg>
