<svg xmlns="http://www.w3.org/2000/svg" xmlns:xlink="http://www.w3.org/1999/xlink" width="98" height="24" viewBox="0 0 98 24">
  <defs>
    <clipPath id="clip-path">
      <rect id="Ret칙ngulo_5" data-name="Ret칙ngulo 5" width="24" height="24" transform="translate(213 1030)" fill="#fff" stroke="#707070" stroke-width="1"/>
    </clipPath>
  </defs>
  <g id="Grupo_13" data-name="Grupo 13" transform="translate(-213 -1051)">
    <text id="Instagram" transform="translate(245 1069)" fill="#676767" font-size="14" font-family="OpenSans, Open Sans"><tspan x="0" y="0">Instagram</tspan></text>
    <g id="Grupo_de_m치scara_1" data-name="Grupo de m치scara 1" transform="translate(0 21)" clip-path="url(#clip-path)">
      <g id="_001-instagram" data-name="001-instagram" transform="translate(212.981 1030)">
        <path id="Caminho_1" data-name="Caminho 1" d="M23.955,7.056A8.77,8.77,0,0,0,23.4,4.144,6.148,6.148,0,0,0,19.886.633,8.792,8.792,0,0,0,16.974.075C15.69.014,15.282,0,12.023,0S8.357.014,7.077.07A8.772,8.772,0,0,0,4.166.628,5.856,5.856,0,0,0,2.037,2.016,5.909,5.909,0,0,0,.654,4.14,8.793,8.793,0,0,0,.1,7.051C.035,8.336.021,8.744.021,12s.014,3.666.07,4.946A8.769,8.769,0,0,0,.649,19.86a6.147,6.147,0,0,0,3.512,3.512,8.793,8.793,0,0,0,2.912.558c1.28.056,1.688.07,4.946.07s3.666-.014,4.946-.07a8.767,8.767,0,0,0,2.911-.558,6.139,6.139,0,0,0,3.512-3.512,8.8,8.8,0,0,0,.558-2.912c.056-1.28.07-1.688.07-4.946S24.012,8.336,23.955,7.056Zm-2.161,9.8a6.578,6.578,0,0,1-.413,2.227A3.981,3.981,0,0,1,19.1,21.361a6.6,6.6,0,0,1-2.227.412c-1.266.056-1.646.07-4.848.07s-3.587-.014-4.848-.07a6.575,6.575,0,0,1-2.227-.412,3.693,3.693,0,0,1-1.378-.9,3.731,3.731,0,0,1-.9-1.378,6.6,6.6,0,0,1-.412-2.227c-.056-1.266-.07-1.646-.07-4.848s.014-3.587.07-4.848a6.575,6.575,0,0,1,.412-2.227,3.648,3.648,0,0,1,.9-1.379,3.726,3.726,0,0,1,1.378-.9A6.606,6.606,0,0,1,7.185,2.25c1.266-.056,1.646-.07,4.848-.07s3.587.014,4.848.07a6.578,6.578,0,0,1,2.227.413,3.69,3.69,0,0,1,1.378.9,3.73,3.73,0,0,1,.9,1.379,6.6,6.6,0,0,1,.413,2.227c.056,1.266.07,1.646.07,4.848S21.85,15.589,21.794,16.855Zm0,0" fill="#676767"/>
        <path id="Caminho_2" data-name="Caminho 2" d="M12.023,5.837A6.165,6.165,0,1,0,18.189,12,6.167,6.167,0,0,0,12.023,5.837Zm0,10.165a4,4,0,1,1,4-4A4,4,0,0,1,12.023,16Zm0,0" fill="#676767"/>
        <path id="Caminho_3" data-name="Caminho 3" d="M19.872,5.593a1.439,1.439,0,1,1-1.439-1.439A1.439,1.439,0,0,1,19.872,5.593Zm0,0" fill="#676767"/>
      </g>
    </g>
  </g>
</svg>
