<svg xmlns="http://www.w3.org/2000/svg" xmlns:xlink="http://www.w3.org/1999/xlink" width="89" height="24" viewBox="0 0 89 24">
  <defs>
    <clipPath id="clip-path">
      <rect id="Ret칙ngulo_6" data-name="Ret칙ngulo 6" width="24" height="24" transform="translate(213 1062)" fill="#fff" stroke="#707070" stroke-width="1"/>
    </clipPath>
  </defs>
  <g id="Grupo_14" data-name="Grupo 14" transform="translate(-213 -1097)">
    <text id="YouTube" transform="translate(245 1115)" fill="#676767" font-size="14" font-family="OpenSans, Open Sans"><tspan x="0" y="0">YouTube</tspan></text>
    <g id="Grupo_de_m치scara_2" data-name="Grupo de m치scara 2" transform="translate(0 35)" clip-path="url(#clip-path)">
      <g id="_003-youtube-logotype" data-name="003-youtube-logotype" transform="translate(213 1062)">
        <g id="Grupo_3" data-name="Grupo 3">
          <path id="Caminho_4" data-name="Caminho 4" d="M21.779,12.151a2.559,2.559,0,0,0-2.19-1.991A68.066,68.066,0,0,0,12,9.879a68.087,68.087,0,0,0-7.587.281,2.559,2.559,0,0,0-2.189,1.991A21.692,21.692,0,0,0,1.87,16.94a21.688,21.688,0,0,0,.353,4.789,2.559,2.559,0,0,0,2.189,1.991A68.07,68.07,0,0,0,12,24a68.022,68.022,0,0,0,7.587-.281,2.559,2.559,0,0,0,2.189-1.991,21.7,21.7,0,0,0,.355-4.789A21.72,21.72,0,0,0,21.779,12.151ZM7.649,13.34H6.183v7.792H4.821V13.34H3.381V12.063H7.649Zm3.7,7.792H10.123v-.737a1.962,1.962,0,0,1-1.4.83.751.751,0,0,1-.789-.5,3.448,3.448,0,0,1-.108-1V14.375H9.052v4.975a3.812,3.812,0,0,0,.011.476c.029.19.122.286.286.286.246,0,.5-.189.774-.573V14.375h1.225v6.757ZM16,19.1a5.4,5.4,0,0,1-.124,1.361.969.969,0,0,1-.978.759,1.668,1.668,0,0,1-1.265-.747v.655H12.408V12.063h1.224v2.961a1.658,1.658,0,0,1,1.265-.733.968.968,0,0,1,.978.762A5.188,5.188,0,0,1,16,16.413Zm4.62-1.127H18.172v1.2c0,.625.2.938.625.938a.526.526,0,0,0,.547-.491,7.7,7.7,0,0,0,.028-.829H20.62v.179c0,.395-.015.666-.026.789a1.745,1.745,0,0,1-.286.733,1.7,1.7,0,0,1-1.481.733,1.753,1.753,0,0,1-1.482-.692,2.617,2.617,0,0,1-.393-1.589V16.578a2.63,2.63,0,0,1,.378-1.592,1.74,1.74,0,0,1,1.466-.693,1.7,1.7,0,0,1,1.444.693,2.656,2.656,0,0,1,.379,1.592v1.4Z" fill="#676767" stroke="#707070" stroke-width="0.265"/>
          <path id="Caminho_5" data-name="Caminho 5" d="M18.786,15.394q-.614,0-.614.937v.625H19.4v-.625C19.4,15.707,19.191,15.394,18.786,15.394Z" fill="#676767" stroke="#707070" stroke-width="0.265"/>
          <path id="Caminho_6" data-name="Caminho 6" d="M14.243,15.394a.877.877,0,0,0-.611.3V19.81a.873.873,0,0,0,.611.3c.353,0,.533-.3.533-.912V16.316C14.775,15.707,14.6,15.394,14.243,15.394Z" fill="#676767" stroke="#707070" stroke-width="0.265"/>
          <path id="Caminho_7" data-name="Caminho 7" d="M14.927,9.257a1.988,1.988,0,0,0,1.413-.838v.745h1.237V2.334H16.34V7.553c-.274.387-.534.579-.782.579-.166,0-.263-.1-.29-.29a2.87,2.87,0,0,1-.015-.481V2.334H14.02v5.4a3.45,3.45,0,0,0,.11,1.015A.76.76,0,0,0,14.927,9.257Z" fill="#676767" stroke="#707070" stroke-width="0.265"/>
          <path id="Caminho_8" data-name="Caminho 8" d="M6.313,5.452V9.163H7.685V5.452L9.335,0H7.948L7.012,3.6,6.038,0H4.594c.289.849.59,1.7.88,2.553A22.571,22.571,0,0,1,6.313,5.452Z" fill="#676767" stroke="#707070" stroke-width="0.265"/>
          <path id="Caminho_9" data-name="Caminho 9" d="M11.174,9.257a1.687,1.687,0,0,0,1.443-.7A2.671,2.671,0,0,0,13,6.952V4.561a2.676,2.676,0,0,0-.384-1.608,1.684,1.684,0,0,0-1.443-.7,1.685,1.685,0,0,0-1.441.7,2.654,2.654,0,0,0-.387,1.608V6.952a2.647,2.647,0,0,0,.387,1.606A1.686,1.686,0,0,0,11.174,9.257Zm-.59-4.944c0-.632.192-.947.59-.947s.59.315.59.947V7.185c0,.632-.191.948-.59.948s-.59-.316-.59-.948Z" fill="#676767" stroke="#707070" stroke-width="0.265"/>
        </g>
      </g>
    </g>
  </g>
</svg>
